PathFileType	4	(X/Y/Z)	C:\Git\research_data\torsion_deformities_healthy_kinematics\simulations\TD07\pre\static_01\markers_HJC.trc
DataRate	CameraRate	NumFrames	NumMarkers	Units	OrigDataRate	OrigDataStartFrame	OrigNumFrames
200	200	4	40	mm	200	1	120
Frame#	Time	C7			T10			CLAV			STRN			RBAK			LASI			RASI			SACR			RT1			RT2			RT3			RKNE			RS1			RS2			RS3			RANK			RHEE			RTOE			RM5D			LT1			LT2			LT3			LKNE			LS1			LS2			LS3			LANK			LHEE			LTOE			LM5D			RHJC			LHJC			LKNM			LANM			RKNM			RANM			LKJC			LAJC			RKJC			RAJC		
		X1	Y1	Z1	X2	Y2	Z2	X3	Y3	Z3	X4	Y4	Z4	X5	Y5	Z5	X6	Y6	Z6	X7	Y7	Z7	X8	Y8	Z8	X9	Y9	Z9	X10	Y10	Z10	X11	Y11	Z11	X12	Y12	Z12	X13	Y13	Z13	X14	Y14	Z14	X15	Y15	Z15	X16	Y16	Z16	X17	Y17	Z17	X18	Y18	Z18	X19	Y19	Z19	X20	Y20	Z20	X21	Y21	Z21	X22	Y22	Z22	X23	Y23	Z23	X24	Y24	Z24	X25	Y25	Z25	X26	Y26	Z26	X27	Y27	Z27	X28	Y28	Z28	X29	Y29	Z29	X30	Y30	Z30	X31	Y31	Z31	X32	Y32	Z32	X33	Y33	Z33	X34	Y34	Z34	X35	Y35	Z35	X36	Y36	Z36	X37	Y37	Z37	X38	Y38	Z38	X39	Y39	Z39	X40	Y40	Z40	

1	0.000000	655.940918	1225.762573	350.130463	661.408508	1004.226379	344.671478	670.290588	1199.730469	223.210571	670.430847	1067.422241	155.369705	755.688354	1092.972656	361.128418	547.312744	796.510925	204.151718	803.151123	833.430542	196.897156	672.429688	853.418152	354.512817	865.856873	607.121338	308.186005	863.659241	546.539917	336.437225	875.548401	545.559875	287.178589	881.850952	442.117554	297.907806	915.191833	350.620361	349.860657	921.645569	287.906555	376.382538	937.885315	292.705658	326.000946	962.028015	87.248856	322.015411	922.836304	45.935616	358.677460	978.974243	47.498672	167.435699	1003.258789	34.396957	257.466858	482.861786	615.060791	252.404236	473.544922	559.263733	288.192719	482.300659	550.686096	237.493164	453.255798	421.805969	303.417358	401.208069	310.196838	317.897095	386.129211	255.257736	353.093109	381.534698	248.693832	302.114136	348.671448	71.319351	334.974182	387.024414	43.448166	357.762573	297.947357	42.740250	178.641800	286.211365	29.833328	273.287872	779.368994	755.015804	265.900740	596.071039	728.564377	271.098344	542.653992	382.686340	260.081665	407.312469	67.372604	271.807831	793.117737	404.821411	266.431976	888.200867	74.911316	278.076416	497.954895	402.246155	281.749512	377.991959	69.345978	303.391006	837.484344	423.469482	282.169891	925.114441	81.080086	300.045914	
2	0.005000	655.886169	1225.816650	350.102173	661.432922	1004.240601	344.692963	670.254211	1199.741577	223.208481	670.434814	1067.431396	155.350616	755.702332	1093.055176	361.128387	547.317078	796.524902	204.247726	803.157837	833.425415	197.002548	672.422363	853.430420	354.611237	865.841858	607.122314	308.274841	863.661194	546.548218	336.454468	875.550171	545.563599	287.260559	881.845032	442.120850	297.978607	915.208069	350.610229	349.938843	921.662109	287.880280	376.416107	937.884583	292.712982	326.038330	962.037964	87.249687	322.014740	922.840942	45.935123	358.682892	978.973694	47.503986	167.436630	1003.252197	34.397274	257.480835	482.852325	615.071655	252.489258	473.531128	559.268005	288.271667	482.311920	550.688232	237.580597	453.244965	421.808136	303.466370	401.198425	310.195190	317.929993	386.127075	255.262161	353.109589	381.528687	248.695129	302.138245	348.671967	71.316002	334.977570	387.027222	43.442810	357.759644	297.946320	42.739101	178.643845	286.211273	29.830105	273.290009	779.366984	755.016605	266.009546	596.067289	728.578860	271.200427	542.644470	382.698639	260.135742	407.310852	67.377182	271.811951	793.110107	404.821442	266.496155	888.208130	74.914787	278.084473	497.944717	402.253387	281.801056	377.991409	69.346592	303.394760	837.477570	423.471146	282.237381	925.123047	81.082237	300.049606	
3	0.010000	655.832092	1225.870239	350.073914	661.457336	1004.254639	344.713959	670.218079	1199.752686	223.205643	670.437988	1067.440552	155.331223	755.716248	1093.136597	361.127655	547.321045	796.538879	204.342575	803.164062	833.420288	197.105652	672.415527	853.442505	354.707947	865.826904	607.123352	308.361725	863.662292	546.556396	336.472198	875.551758	545.567261	287.340759	881.839111	442.124176	298.048004	915.224060	350.600311	350.015564	921.678345	287.854584	376.448914	937.883850	292.720276	326.074921	962.047729	87.250542	322.014069	922.845520	45.934635	358.688232	978.973083	47.509190	167.437546	1003.245789	34.397594	257.494476	482.842834	615.082458	252.573227	473.517395	559.272217	288.349579	482.322601	550.690491	237.666840	453.234222	421.810272	303.514648	401.188873	310.193573	317.962372	386.124969	255.266556	353.125763	381.522736	248.696426	302.161987	348.672577	71.312714	334.980865	387.029999	43.437550	357.756714	297.945312	42.737968	178.645874	286.211182	29.826937	273.292084	779.364817	755.017340	266.116050	596.063464	728.593276	271.301018	542.634949	382.710815	260.188934	407.309235	67.381691	271.815979	793.102417	404.821472	266.559235	888.215271	74.918190	278.092407	497.934586	402.260544	281.851791	377.990906	69.347202	303.398422	837.470764	423.472824	282.303619	925.131500	81.084366	300.053238	
4	0.015000	655.778748	1225.923340	350.045654	661.481812	1004.268555	344.734436	670.182068	1199.763672	223.202087	670.440430	1067.449829	155.311508	755.730042	1093.216919	361.126160	547.324646	796.552734	204.436249	803.169922	833.415222	197.206467	672.409058	853.454407	354.802948	865.812012	607.124512	308.446655	863.662537	546.564514	336.490448	875.553223	545.570923	287.419128	881.833191	442.127502	298.116028	915.239746	350.590637	350.090851	921.694336	287.829437	376.480896	937.883057	292.727509	326.110687	962.057312	87.251427	322.013397	922.850037	45.934158	358.693481	978.972534	47.514278	167.438477	1003.239502	34.397919	257.507843	482.833282	615.093201	252.656143	473.503784	559.276489	288.426483	482.332733	550.692871	237.751877	453.223541	421.812408	303.562134	401.179413	310.191986	317.994232	386.122925	255.270889	353.141663	381.516846	248.697693	302.185333	348.673279	71.309471	334.984070	387.032776	43.432388	357.753815	297.944275	42.736839	178.647842	286.211090	29.823824	273.294128	779.362639	755.018031	266.220292	596.059630	728.607518	271.400145	542.625427	382.722870	260.241241	407.307709	67.386124	271.819885	793.094727	404.821503	266.621185	888.222229	74.921524	278.100250	497.924484	402.267639	281.901688	377.990494	69.347797	303.401978	837.463959	423.474503	282.368607	925.139771	81.086475	300.056824	
